<svg width="20" height="20" viewBox="0 0 20 20" fill="none" xmlns="http://www.w3.org/2000/svg">
<path d="M14.3345 -0.000801086C17.7225 -0.000801086 19.9995 2.3772 19.9995 5.9162V14.0832C19.9995 17.6222 17.7225 19.9992 14.3335 19.9992H5.66551C2.27651 19.9992 -0.000488281 17.6222 -0.000488281 14.0832V5.9162C-0.000488281 2.3772 2.27651 -0.000801086 5.66551 -0.000801086H14.3345ZM6.84051 7.3982C5.40651 7.3982 4.23951 8.5652 4.23951 9.9992C4.23951 11.4342 5.40651 12.6012 6.84051 12.6012C8.01251 12.6012 8.99451 11.8172 9.31851 10.7492H11.4305V11.8512C11.4305 12.2652 11.7665 12.6012 12.1805 12.6012C12.5945 12.6012 12.9305 12.2652 12.9305 11.8512V10.7492H14.2605V11.8512C14.2605 12.2652 14.5965 12.6012 15.0105 12.6012C15.4245 12.6012 15.7605 12.2652 15.7605 11.8512V9.9992C15.7605 9.5852 15.4245 9.2492 15.0105 9.2492H9.31851C8.99451 8.1822 8.01251 7.3982 6.84051 7.3982ZM6.84061 8.8981C7.44761 8.8981 7.94261 9.3921 7.94261 10.0001C7.94261 10.6071 7.44761 11.1011 6.84061 11.1011C6.23361 11.1011 5.73861 10.6071 5.73861 10.0001C5.73861 9.3921 6.23361 8.8981 6.84061 8.8981Z" fill="#9CA4AB"/>
</svg>
