<svg width="16" height="20" viewBox="0 0 16 20" fill="none" xmlns="http://www.w3.org/2000/svg">
<path fill-rule="evenodd" clip-rule="evenodd" d="M15.84 16.1931C15.84 19.4891 11.32 19.8701 7.921 19.8701L7.67776 19.8699C5.51221 19.8646 0 19.7279 0 16.1731C0 12.9444 4.33835 12.5129 7.71148 12.4966L8.16423 12.4963C10.3296 12.5016 15.84 12.6383 15.84 16.1931ZM7.921 13.9961C3.66 13.9961 1.5 14.7281 1.5 16.1731C1.5 17.6311 3.66 18.3701 7.921 18.3701C12.181 18.3701 14.34 17.6381 14.34 16.1931C14.34 14.7351 12.181 13.9961 7.921 13.9961ZM7.921 -0.000305176C10.849 -0.000305176 13.23 2.38169 13.23 5.30969C13.23 8.23769 10.849 10.6187 7.921 10.6187H7.889C4.967 10.6097 2.6 8.22669 2.60997 5.30669C2.60997 2.38169 4.992 -0.000305176 7.921 -0.000305176ZM7.921 1.42769C5.78 1.42769 4.03798 3.16869 4.03798 5.30969C4.031 7.44369 5.76 9.18369 7.892 9.19169L7.921 9.90569V9.19169C10.061 9.19169 11.802 7.44969 11.802 5.30969C11.802 3.16869 10.061 1.42769 7.921 1.42769Z" fill="#66707A"/>
</svg>
