<svg width="17" height="21" viewBox="0 0 17 21" fill="none" xmlns="http://www.w3.org/2000/svg">
<path fill-rule="evenodd" clip-rule="evenodd" d="M8.48362 0.416992C9.61662 0.416992 15.5616 2.45799 16.3486 3.24499C17.0046 3.90099 16.9946 4.43099 16.9486 6.97099C16.9306 7.98899 16.9056 9.37599 16.9056 11.296C16.9056 18.178 9.03562 20.64 8.70062 20.741C8.62962 20.763 8.55662 20.773 8.48362 20.773C8.41062 20.773 8.33762 20.763 8.26662 20.741C7.93162 20.64 0.061623 18.178 0.061623 11.296C0.061623 9.37899 0.036623 7.99199 0.018623 6.97399C0.0104088 6.51989 0.00334243 6.12997 0.00101713 5.79206L0.000732422 5.41076C0.00931055 4.15812 0.126873 3.73699 0.619623 3.24499C1.40462 2.45799 7.34962 0.416992 8.48362 0.416992ZM8.48362 1.91699C7.63562 1.91699 2.28562 3.80099 1.66862 4.31599C1.48662 4.49899 1.47962 4.81699 1.51862 6.94599C1.53662 7.97199 1.56162 9.36599 1.56162 11.296C1.56162 16.497 7.28362 18.806 8.48262 19.231C9.68062 18.804 15.4056 16.482 15.4056 11.296C15.4056 9.36399 15.4306 7.96899 15.4496 6.94299C15.4876 4.81599 15.4806 4.49799 15.2876 4.30599C14.6826 3.80099 9.33162 1.91699 8.48362 1.91699ZM12.2051 7.75649C12.4981 8.04949 12.4981 8.52449 12.2051 8.81749L8.30712 12.7165C8.19512 12.8293 8.05048 12.9024 7.89522 12.9271L7.77712 12.9365C7.57812 12.9365 7.38712 12.8575 7.24612 12.7165L5.35412 10.8225C5.06212 10.5295 5.06212 10.0535 5.35512 9.76149C5.64712 9.46849 6.12312 9.46849 6.41612 9.76149L7.77712 11.1245L11.1451 7.75649C11.4381 7.46349 11.9121 7.46349 12.2051 7.75649Z" fill="#355FE5"/>
</svg>
