<svg width="18" height="20" viewBox="0 0 18 20" fill="none" xmlns="http://www.w3.org/2000/svg">
<path fill-rule="evenodd" clip-rule="evenodd" d="M0.277931 14.4538C0.397892 14.2876 0.673447 14.0196 0.673447 14.0196C1.64858 12.9792 4.07394 11.4121 5.30444 10.9089C5.30444 10.8984 6.03608 10.5999 6.38409 10.5882H6.43041C6.96371 10.5882 7.46255 10.8867 7.71792 11.3665C7.8232 11.5643 7.92111 12.0454 7.96835 12.2776C7.98399 12.3544 7.99408 12.404 7.99704 12.4069C8.10156 13.0927 8.17045 14.1449 8.17045 15.3C8.17045 16.5124 8.10156 17.6102 7.97328 18.2855C7.97328 18.2972 7.84619 18.9139 7.76424 19.1199C7.63715 19.4172 7.40436 19.6688 7.11455 19.8291C6.88294 19.9438 6.63827 20 6.38409 20C6.11685 19.9895 5.618 19.8174 5.42083 19.7378C4.12026 19.2346 1.6367 17.588 0.685325 16.5815C0.579218 16.4769 0.468061 16.3579 0.390714 16.2752C0.349445 16.231 0.317802 16.1971 0.301685 16.1812C0.104521 15.9296 0 15.6206 0 15.2883C0 14.9922 0.0926435 14.6949 0.277931 14.4538ZM7.16178 3.77138C7.68558 3.77138 8.10962 4.18918 8.10962 4.7053C8.10962 5.22141 7.68558 5.63922 7.16178 5.63922L2.58295 5.89669C1.91543 5.89669 1.375 5.36302 1.375 4.7053C1.375 4.04757 1.91543 3.51508 2.58295 3.51508L7.16178 3.77138ZM10.2356 0.880085C10.3639 0.582823 10.5955 0.331203 10.8853 0.170868C11.1169 0.0561752 11.3616 0 11.617 0C11.883 0.0105324 12.3831 0.182571 12.5802 0.263325C13.8797 0.765394 16.3633 2.41321 17.3158 3.41852C17.4194 3.52134 17.5284 3.63812 17.6055 3.72071L17.6055 3.72078C17.6486 3.76694 17.6817 3.80241 17.6983 3.81878C17.8955 4.07157 18 4.37936 18 4.71056C18 5.009 17.9074 5.30626 17.7209 5.54618C17.6021 5.71236 17.3265 5.98037 17.3265 5.98037C16.3526 7.02196 13.926 8.58786 12.6954 9.0911C12.6954 9.1028 11.965 9.40006 11.617 9.41177H11.5706C11.0361 9.41177 10.5373 9.1145 10.2819 8.6335C10.1777 8.43609 10.0796 7.95649 10.0319 7.72383L10.0319 7.72381C10.016 7.64614 10.0058 7.59601 10.0028 7.59308C9.89827 6.90727 9.82938 5.85514 9.82938 4.70003C9.82938 3.48757 9.89827 2.38981 10.0265 1.71453C10.0265 1.70399 10.1536 1.08606 10.2356 0.880085ZM9.89053 15.2945C9.89053 15.8106 10.3146 16.2284 10.8383 16.2284L15.4171 16.4859C16.0846 16.4859 16.625 15.9522 16.625 15.2945C16.625 14.6367 16.0846 14.1042 15.4171 14.1042L10.8383 14.3605C10.3146 14.3605 9.89053 14.7784 9.89053 15.2945Z" fill="#9CA4AB"/>
</svg>
